<?xml version="1.0" encoding="UTF-8"?>
<svg width="1024" height="1024" version="1.1" viewBox="-5.724 -43.601 1024 1024" xmlns="http://www.w3.org/2000/svg">
    <g fill="#2496ed">
        <g stroke-width=".8223">
            <path d="m151.6 646.59c-8.6168-0.2837-15.832 6.4706-16.116 15.088-0.0115 0.34289-0.0115 0.68579 0 1.0287v77.493c-37.39-30.028-92.042-24.059-122.07 13.33-12.387 15.425-19.136 34.615-19.13 54.397-0.81901 47.933 37.374 87.455 85.308 88.274 47.933 0.81901 87.455-37.374 88.274-85.308 0.0173-0.98922 0.0173-1.9776 0-2.966v-145.15c0.1291-4.35-1.5895-8.5511-4.7307-11.562-3.0762-3.008-7.2354-4.6501-11.537-4.5539m-20.392 182.16c-5.5431 13.038-15.888 23.446-28.892 29.07-13.625 5.7684-29.006 5.7684-42.631 0-12.977-5.5711-23.283-15.967-28.74-28.994-5.7026-13.472-5.7026-28.678 0-42.149 5.4691-12.983 15.777-23.327 28.74-28.842 13.625-5.7684 29.006-5.7684 42.631 0 13.004 5.6237 23.349 16.031 28.892 29.07 5.701 13.419 5.701 28.579 0 41.998"/>
            <path d="m332.83 746.48c-33.914-33.884-88.876-33.859-122.76 0.0551-16.256 16.269-25.389 38.324-25.397 61.322-0.81901 47.934 37.374 87.455 85.308 88.275 47.933 0.81901 87.455-37.375 88.274-85.308 0.0173-0.98841 0.0173-1.9768 0-2.966 8e-3 -11.415-2.175-22.726-6.4263-33.32-4.3796-10.536-10.842-20.079-19-28.058m-11.208 82.276c-2.772 6.4328-6.7182 12.293-11.638 17.281-4.9634 4.9856-10.826 8.9869-17.281 11.789-13.616 5.7701-28.989 5.7701-42.605 0-12.992-5.5587-23.31-15.958-28.766-28.993-5.7026-13.472-5.7026-28.678 0-42.15 5.4847-12.964 15.803-23.281 28.766-28.766 13.616-5.7701 28.989-5.7701 42.605 0 6.4542 2.8024 12.317 6.8029 17.281 11.79 4.9198 4.9856 8.866 10.846 11.638 17.28 5.6681 13.426 5.6681 28.572 0 41.998"/>
            <path d="m691.68 737.17c0.0107-2.1339-0.42842-4.2455-1.2894-6.1985-0.87657-1.874-2.0664-3.5852-3.517-5.0604-1.4324-1.4933-3.1543-2.6815-5.0596-3.4915-2.013-0.83052-4.1715-1.2515-6.3506-1.24-3.077-0.0206-6.094 0.85848-8.6785 2.5302l-92.673 60.29v-121.06c0.0822-4.3335-1.6298-8.5083-4.7307-11.537-2.9816-3.133-7.1375-4.8754-11.461-4.8072-8.9277-0.0559-16.212 7.1367-16.268 16.065v0.2031 215.43c-0.0518 4.3056 1.6578 8.4458 4.7315 11.461 3.0039 3.1436 7.1877 4.8869 11.536 4.8072 4.3097 0.0699 8.4499-1.675 11.41-4.8072 3.0738-3.0154 4.7833-7.1556 4.7315-11.461v-55.862l18.899-12.397 71.625 80.429c2.9011 2.7901 6.8045 4.2949 10.828 4.174 2.1791 0.0247 4.3401-0.39717 6.3506-1.24 1.9094-0.79105 3.6329-1.971 5.0596-3.466 1.4736-1.5138 2.6651-3.2785 3.5161-5.2117 0.86177-1.953 1.3009-4.0646 1.291-6.1985 0.01-4.2036-1.5936-8.2518-4.4782-11.309l-66.589-75.015 64.92-42.149c4.1929-2.897 6.548-7.7913 6.1968-12.877"/>
            <path d="m422.79 769.35c5.0037-4.9469 10.902-8.8956 17.382-11.638 6.7099-2.855 13.934-4.3006 21.226-4.2504 6.4558-0.0592 12.866 1.0904 18.899 3.3903 6.0464 2.4315 11.646 5.8515 16.571 10.12 2.994 2.3847 6.7231 3.6551 10.55 3.5926 4.3615 0.18337 8.6004-1.4686 11.689-4.5539 3.04-3.0984 4.6928-7.2987 4.5786-11.638 0.0534-4.711-1.9965-9.1999-5.5916-12.246-15.529-13.899-35.732-21.426-56.571-21.075-47.941 0-86.803 38.863-86.803 86.803-0.12006 47.871 38.59 86.775 86.46 86.895 20.896 0.0518 41.108-7.4467 56.914-21.116 3.2604-3.1025 5.0917-7.4163 5.0596-11.916 0.28452-8.6168-6.4698-15.832-15.087-16.116-0.3429-0.0115-0.68662-0.0115-1.0295 0-3.688 0.0164-7.2765 1.203-10.247 3.3903-4.845 4.2669-10.402 7.6506-16.42 9.9926-6.0398 2.2712-12.447 3.4035-18.899 3.3402-7.2913 0.051-14.516-1.3954-21.226-4.2504-6.474-2.7514-12.371-6.6993-17.381-11.637-21.266-21.14-21.37-55.517-0.23106-76.783 0.0773-0.0773 0.15459-0.15377 0.23106-0.23024"/>
            <path d="m1013.6 731.9c-3.1355-2.9422-6.8621-5.1838-10.93-6.5784-4.6518-1.6701-9.4828-2.7909-14.395-3.3394-4.8598-0.59698-9.7516-0.90123-14.648-0.9111-9.9366-0.0304-19.801 1.6816-29.145 5.0604-9.1579 3.3394-17.705 8.1597-25.3 14.269v-3.2382c-0.35441-8.9491-7.8965-15.917-16.846-15.564-8.4524 0.33385-15.23 7.1104-15.564 15.564v141.35c0.35358 8.9499 7.8957 15.917 16.845 15.564 8.4532-0.33385 15.23-7.1104 15.564-15.564v-70.663c-0.0485-7.2995 1.3971-14.532 4.2496-21.251 2.7284-6.4435 6.6713-12.302 11.613-17.254 4.9724-4.9362 10.836-8.8858 17.28-11.638 6.7198-2.855 13.952-4.3006 21.252-4.2504 7.2568-0.0715 14.462 1.2425 21.226 3.8706 2.1372 1.0287 4.4626 1.606 6.8317 1.6956 2.1782 0.0197 4.3384-0.4021 6.3506-1.24 1.9069-0.80586 3.6288-1.9941 5.0596-3.4907 1.4456-1.4744 2.6264-3.1856 3.4915-5.0596 0.8782-2.0015 1.3271-4.1649 1.3156-6.3506 0.1571-4.072-1.4242-8.0182-4.3507-10.854"/>
            <path d="m863.01 774.66c-13.786-32.224-45.38-53.194-80.429-53.383-47.926-0.014-86.789 38.826-86.803 86.753v0.0247c-9e-3 47.955 38.858 86.838 86.812 86.846 20.818 4e-3 40.946-7.4722 56.714-21.066 0.22777-0.22695 0.58218-0.5312 0.63317-0.60685 1.4135-1.1446 2.6494-2.4907 3.6683-3.9972 5.2101-7.5035 3.3517-17.809-4.1485-23.023-6.2873-4.0844-14.553-3.3426-20.013 1.7967-0.53121 0.48105-2.0492 1.8979-2.3016 2.1002l-0.22778 0.20228c-4.6188 3.9281-9.8947 7.0109-15.585 9.1078-6.0192 2.1215-12.365 3.1667-18.747 3.0869-5.8819 0.0288-11.729-0.9111-17.306-2.7835-5.4296-1.8148-10.548-4.4511-15.18-7.8176-4.6147-3.3755-8.6703-7.4566-12.017-12.094-3.4191-4.734-6.0357-9.9991-7.7419-15.584h122.73c4.3064 0.0979 8.4688-1.555 11.536-4.5794 3.1568-2.9907 4.8795-7.191 4.7315-11.537 0.0987-11.441-2.059-22.789-6.3506-33.395m-132.67 17.278c1.6216-5.59 4.1888-10.861 7.589-15.584 3.3673-4.6443 7.4492-8.7262 12.094-12.094 4.697-3.3632 9.8742-5.9987 15.357-7.8176 5.548-1.8477 11.358-2.7876 17.204-2.7835 5.8136-7e-3 11.59 0.93413 17.103 2.7835 10.942 3.6362 20.476 10.597 27.273 19.911 3.4709 4.7175 6.122 9.9868 7.8431 15.584z"/>
            <path d="m958.27 871.18c-6.2026 0.0979-11.152 5.206-11.054 11.409 0.0978 6.2034 5.2068 11.152 11.409 11.054 6.1631-0.097 11.096-5.1426 11.056-11.307-0.0699-6.2314-5.178-11.226-11.409-11.157 0 0-8.2e-4 0 0 0m0 20.062c-4.9132 0.22367-9.0773-3.5786-9.301-8.491-0.22284-4.914 3.5786-9.0782 8.4919-9.3018 4.9132-0.22284 9.0773 3.5786 9.301 8.4919 8e-3 0.15623 0.0107 0.31411 9e-3 0.47117 0.16775 4.706-3.5112 8.6563-8.2164 8.8241-0.0946 4e-3 -0.18913 6e-3 -0.28451 6e-3"/>
            <path d="m960.85 882.69v-0.15212c1.2433-0.24011 2.1791-1.2696 2.3024-2.5294 0.0469-0.9662-0.35524-1.9003-1.0879-2.5302-1.1882-0.62906-2.5294-0.90946-3.8706-0.80914-1.4333-0.0197-2.8649 0.0987-4.2759 0.35441v11.132h2.5302v-4.4782h1.2145c1.4423 0 2.1002 0.5312 2.3271 1.7712 0.1513 0.93988 0.44075 1.8518 0.86095 2.707h2.8081c-0.43582-0.87328-0.71786-1.8148-0.83545-2.7835-0.11348-1.2112-0.89466-2.2564-2.0245-2.707m-3.0614-0.80996h-1.24v-3.2135c0.4794-0.0567 0.96374-0.0567 1.4423 0 1.6199 0 2.3789 0.68333 2.3789 1.6956s-1.1636 1.6446-2.5294 1.6446"/>
        </g>
        <g stroke-width=".98676">
            <path d="m851.67 246.65c-1.9123-1.5186-19.764-14.998-57.41-14.998-9.9406 0.0434-19.86 0.89597-29.663 2.5498-7.2862-49.942-48.576-74.291-50.427-75.383l-10.109-5.8298-6.6488 9.5942c-8.3262 12.888-14.405 27.095-17.973 42.018-6.7405 28.508-2.6415 55.285 11.84 78.177-17.487 9.7452-45.54 12.144-51.217 12.356h-464.45c-12.131 0.0168-21.975 9.8202-22.041 21.95-0.54173 40.688 6.3518 81.133 20.341 119.34 15.999 41.958 39.802 72.864 70.769 91.778 34.701 21.252 91.08 33.396 154.99 33.396 28.871 0.0908 57.687-2.5222 86.071-7.8023 39.456-7.2448 77.424-21.036 112.33-40.804 28.763-16.656 54.65-37.846 76.659-62.754 36.796-41.654 58.717-88.044 75.019-129.27h6.4968c40.287 0 65.062-16.122 78.723-29.631 9.0792-8.6164 16.167-19.112 20.766-30.754l2.8843-8.4397z"/>
            <path d="m218.66 281.54h62.238c3.0017 0 5.4341-2.4333 5.4341-5.4341v-55.438c0.0168-3.0017-2.4028-5.4479-5.4035-5.4647h-0.0306-62.238c-3.0017 0-5.4341 2.4333-5.4341 5.4341v0.0306 55.437c0 3.0017 2.4324 5.435 5.4341 5.435"/>
            <path d="m304.43 281.54h62.238c3.0017 0 5.4341-2.4333 5.4341-5.4341v-55.438c0.0168-3.0017-2.4028-5.4479-5.4045-5.4647h-0.0306-62.238c-3.0185 0-5.4647 2.4462-5.4647 5.4647v55.437c0.0178 3.0066 2.459 5.435 5.4656 5.435"/>
            <path d="m391.5 281.54h62.238c3.0017 0 5.4341-2.4333 5.4341-5.4341v-55.438c0.0168-3.0017-2.4028-5.4479-5.4045-5.4647h-0.0306-62.238c-3.0017 0-5.4341 2.4333-5.4341 5.4341v0.0306 55.437c9.9e-4 3.0017 2.4343 5.435 5.4351 5.435"/>
            <path d="m477.54 281.54h62.238c3.0066 0 5.4479-2.4274 5.4647-5.4341v-55.438c0-3.0185-2.4462-5.4647-5.4647-5.4647h-62.238c-3.0017 0-5.4341 2.4333-5.4341 5.4341v0.0306 55.437c0 3.0017 2.4333 5.435 5.4341 5.435"/>
            <path d="m304.43 201.78h62.238c3.0057-0.0168 5.4341-2.459 5.4341-5.4647v-55.437c0-3.0017-2.4333-5.4341-5.4341-5.4341h-62.238c-3.0057 0-5.4479 2.4274-5.4647 5.4341v55.437c0.0168 3.0116 2.4531 5.4479 5.4647 5.4647"/>
            <path d="m391.5 201.78h62.238c3.0057-0.0168 5.4341-2.459 5.4341-5.4647v-55.437c0-3.0017-2.4333-5.4341-5.4341-5.4341h-62.238c-3.0017 0-5.4341 2.4333-5.4341 5.4341v55.437c0 3.0057 2.4284 5.4479 5.4341 5.4647"/>
            <path d="m477.54 201.78h62.238c3.0116-0.0168 5.4479-2.4531 5.4647-5.4647v-55.437c-0.0168-3.0066-2.458-5.4341-5.4647-5.4341h-62.238c-3.0017 0-5.4341 2.4333-5.4341 5.4341v55.437c0 3.0057 2.4284 5.4479 5.4341 5.4647"/>
            <path d="m477.54 122h62.238c3.0066 0 5.4479-2.4284 5.4647-5.4341v-55.469c-0.0168-3.0066-2.458-5.4341-5.4647-5.4341h-62.238c-3.0017 0-5.4341 2.4324-5.4341 5.4341v55.468c0 3.0017 2.4333 5.4351 5.4341 5.4351"/>
            <path d="m564.34 281.54h62.238c3.0066 0 5.4479-2.4274 5.4646-5.4341v-55.438c0-3.0185-2.4462-5.4647-5.4646-5.4647h-62.238c-3.0007 0-5.4341 2.4333-5.4341 5.4341v0.0306 55.437c0 3.0017 2.4333 5.435 5.4341 5.435"/>
        </g>
    </g>
</svg>
