<?xml version="1.0" encoding="UTF-8"?>
<svg xmlns="http://www.w3.org/2000/svg" width="566.88pt" height="566.88pt" viewBox="0 0 566.88 566.88" version="1.2">
    <defs>
        <clipPath id="clip1">
            <path d="M 76.0625 412 L 137 412 L 137 489 L 76.0625 489 Z M 76.0625 412 "/>
        </clipPath>
        <clipPath id="clip2">
            <path d="M 292 406.359375 L 320 406.359375 L 320 488 L 292 488 Z M 292 406.359375 "/>
        </clipPath>
        <clipPath id="clip3">
            <path d="M 367 433 L 421 433 L 421 512.769531 L 367 512.769531 Z M 367 433 "/>
        </clipPath>
        <clipPath id="clip4">
            <path d="M 421 435 L 479 435 L 479 512.769531 L 421 512.769531 Z M 421 435 "/>
        </clipPath>
        <clipPath id="clip5">
            <path d="M 474 418 L 490.625 418 L 490.625 435 L 474 435 Z M 474 418 "/>
        </clipPath>
    </defs>
    <g id="surface1">
        <g clip-path="url(#clip1)" clip-rule="nonzero">
            <path style=" stroke:none;fill-rule:nonzero;fill:rgb(28.999329%,31.799316%,34.498596%);fill-opacity:1;"
                  d="M 76.0625 463.511719 L 90.496094 462.164063 C 91.382813 467.007813 93.15625 470.570313 95.808594 472.855469 C 98.460938 475.144531 102.0625 476.273438 106.613281 476.25 C 111.398438 476.25 115.011719 475.222656 117.460938 473.214844 C 119.910156 471.210938 121.089844 468.8125 121.089844 466.132813 C 121.140625 464.503906 120.605469 462.910156 119.589844 461.640625 C 118.5625 460.441406 116.785156 459.355469 114.246094 458.492188 C 112.492188 457.828125 108.53125 456.765625 102.355469 455.191406 C 94.359375 453.238281 88.800781 450.789063 85.585938 447.90625 C 81.234375 444.171875 78.75 438.707031 78.796875 432.96875 C 78.78125 429.210938 79.894531 425.535156 82 422.410156 C 84.238281 419.027344 87.453125 416.398438 91.222656 414.882813 C 95.222656 413.207031 100.039063 412.335938 105.742188 412.335938 C 114.976563 412.335938 121.941406 414.371094 126.625 418.453125 C 131.300781 422.59375 133.742188 428.023438 133.976563 434.835938 L 119.035156 435.335938 C 118.375 431.597656 117.050781 428.875 114.9375 427.199219 C 112.824219 425.519531 109.691406 424.695313 105.5625 424.695313 C 101.246094 424.695313 97.859375 425.582031 95.433594 427.394531 C 93.921875 428.40625 93.03125 430.117188 93.066406 431.933594 C 93.058594 433.695313 93.875 435.355469 95.273438 436.421875 C 97.132813 438.039063 101.703125 439.683594 108.933594 441.367188 C 116.164063 443.054688 121.515625 444.871094 124.96875 446.710938 C 128.324219 448.449219 131.136719 451.0625 133.113281 454.277344 C 135.054688 457.398438 136.066406 461.398438 136.066406 466.09375 C 136.066406 470.324219 134.835938 474.460938 132.527344 478.007813 C 130.144531 481.734375 126.664063 484.625 122.5625 486.285156 C 118.261719 488.042969 112.914063 488.988281 106.507813 488.988281 C 97.179688 488.988281 90.023438 486.808594 85.003906 482.449219 C 79.984375 478.089844 77.039063 471.785156 76.0625 463.511719 Z M 76.0625 463.511719 "/>
        </g>
        <path style=" stroke:none;fill-rule:nonzero;fill:rgb(28.999329%,31.799316%,34.498596%);fill-opacity:1;"
              d="M 134.179688 433.96875 L 149.160156 433.96875 L 161.960938 472.046875 L 174.429688 433.96875 L 189.03125 433.96875 L 170.300781 485.535156 L 166.859375 494.941406 C 165.933594 497.445313 164.753906 499.84375 163.324219 502.101563 C 162.304688 503.683594 160.992188 505.054688 159.457031 506.144531 C 157.8125 507.222656 156.003906 508.027344 154.089844 508.527344 C 151.734375 509.144531 149.304688 509.449219 146.863281 509.433594 C 144.171875 509.421875 141.484375 509.117188 138.855469 508.527344 L 137.683594 497.390625 C 139.652344 497.828125 141.660156 498.0625 143.675781 498.085938 C 146.9375 498.085938 149.367188 497.128906 150.929688 495.203125 C 152.628906 492.988281 153.851563 490.453125 154.539063 487.753906 Z M 134.179688 433.96875 "/>
        <path style=" stroke:none;fill-rule:nonzero;fill:rgb(28.999329%,31.799316%,34.498596%);fill-opacity:1;"
              d="M 238.144531 487.609375 L 224.046875 487.609375 L 224.046875 460.304688 C 224.046875 454.554688 223.753906 450.847656 223.132813 449.136719 C 222.582031 447.523438 221.535156 446.136719 220.136719 445.175781 C 218.667969 444.214844 216.9375 443.722656 215.179688 443.773438 C 212.808594 443.746094 210.476563 444.457031 208.523438 445.808594 C 206.609375 447.0625 205.1875 448.921875 204.472656 451.09375 C 203.722656 453.339844 203.378906 457.398438 203.378906 463.40625 L 203.378906 487.617188 L 189.335938 487.617188 L 189.335938 433.96875 L 202.375 433.96875 L 202.375 441.824219 C 207.066406 435.886719 212.957031 432.953125 220.066406 432.953125 C 223.019531 432.925781 225.953125 433.488281 228.679688 434.605469 C 230.988281 435.515625 233.015625 437.003906 234.570313 438.933594 C 235.902344 440.695313 236.847656 442.714844 237.351563 444.863281 C 237.964844 448.003906 238.234375 451.199219 238.144531 454.398438 Z M 238.144531 487.609375 "/>
        <path style=" stroke:none;fill-rule:nonzero;fill:rgb(28.999329%,31.799316%,34.498596%);fill-opacity:1;"
              d="M 238.226563 460.222656 C 238.246094 455.4375 239.445313 450.730469 241.71875 446.519531 C 243.925781 442.242188 247.367188 438.726563 251.589844 436.421875 C 255.960938 434.082031 260.859375 432.890625 265.828125 432.964844 C 273.960938 432.964844 280.601563 435.59375 285.761719 440.855469 C 290.921875 446.121094 293.519531 452.773438 293.558594 460.816406 C 293.558594 468.925781 290.925781 475.621094 285.699219 480.972656 C 280.464844 486.328125 273.859375 488.996094 265.914063 488.996094 C 261.027344 488.992188 256.210938 487.847656 251.851563 485.648438 C 247.511719 483.542969 243.949219 480.117188 241.679688 475.859375 C 239.390625 471.585938 238.238281 466.375 238.226563 460.222656 Z M 252.671875 460.972656 C 252.671875 466.328125 253.917969 470.414063 256.476563 473.195313 C 260.941406 478.363281 268.761719 478.933594 273.933594 474.464844 C 274.386719 474.074219 274.816406 473.648438 275.203125 473.195313 C 277.703125 470.414063 278.953125 466.273438 278.953125 460.90625 C 278.953125 455.535156 277.703125 451.550781 275.203125 448.746094 C 270.6875 443.578125 262.828125 443.054688 257.65625 447.566406 C 257.238281 447.9375 256.84375 448.328125 256.476563 448.746094 C 253.925781 451.519531 252.671875 455.617188 252.671875 460.933594 Z M 252.671875 460.972656 "/>
        <g clip-path="url(#clip2)" clip-rule="nonzero">
            <path style=" stroke:none;fill-rule:nonzero;fill:rgb(28.999329%,31.799316%,34.498596%);fill-opacity:1;"
                  d="M 310.898438 406.472656 L 310.898438 475.71875 C 310.898438 479.019531 311.148438 481.207031 311.605469 482.253906 C 312.042969 483.292969 312.816406 484.15625 313.804688 484.703125 C 314.796875 485.257813 316.648438 485.542969 319.316406 485.542969 L 319.316406 487.617188 L 293.714844 487.617188 L 293.714844 485.542969 C 296.113281 485.542969 297.742188 485.296875 298.667969 484.792969 C 299.585938 484.214844 300.296875 483.351563 300.699219 482.335938 C 301.199219 481.207031 301.449219 479.003906 301.449219 475.746094 L 301.449219 428.460938 C 301.449219 422.519531 301.328125 418.878906 301.074219 417.511719 C 300.980469 416.457031 300.53125 415.46875 299.804688 414.707031 C 299.199219 414.195313 298.417969 413.925781 297.625 413.957031 C 296.363281 414.050781 295.125 414.363281 293.96875 414.886719 L 292.996094 412.859375 L 308.339844 406.472656 Z M 310.898438 406.472656 "/>
        </g>
        <path style=" stroke:none;fill-rule:nonzero;fill:rgb(28.999329%,31.799316%,34.498596%);fill-opacity:1;"
              d="M 344.734375 433.792969 C 352.675781 433.792969 359.027344 436.792969 363.835938 442.785156 C 367.867188 447.773438 370.035156 454.019531 369.953125 460.433594 C 369.902344 465.351563 368.753906 470.199219 366.585938 474.617188 C 362.726563 483.550781 353.847656 489.269531 344.109375 489.09375 C 336.199219 489.09375 329.921875 485.960938 325.285156 479.703125 C 321.414063 474.582031 319.347656 468.328125 319.394531 461.910156 C 319.4375 456.949219 320.664063 452.074219 322.957031 447.679688 C 325.019531 443.335938 328.296875 439.6875 332.394531 437.171875 C 336.136719 434.972656 340.390625 433.808594 344.734375 433.792969 Z M 342.980469 437.640625 C 340.824219 437.652344 338.722656 438.269531 336.898438 439.417969 C 334.863281 440.632813 333.207031 442.691406 331.945313 445.65625 C 330.691406 448.625 330.066406 452.488281 330.066406 457.191406 C 330.066406 464.785156 331.601563 471.261719 334.609375 476.804688 C 337.613281 482.34375 341.621094 485.042969 346.558594 485.042969 C 350.15625 485.082031 353.554688 483.386719 355.683594 480.488281 C 358.089844 477.453125 359.289063 472.234375 359.289063 464.835938 C 359.289063 455.574219 357.289063 448.359375 353.300781 443.015625 C 350.601563 439.417969 347.15625 437.640625 342.984375 437.640625 Z M 342.980469 437.640625 "/>
        <g clip-path="url(#clip3)" clip-rule="nonzero">
            <path style=" stroke:none;fill-rule:nonzero;fill:rgb(28.999329%,31.799316%,34.498596%);fill-opacity:1;"
                  d="M 381.410156 468.460938 C 372.613281 464.058594 369.054688 453.363281 373.464844 444.570313 C 374.433594 442.636719 375.75 440.886719 377.355469 439.417969 C 381.25 435.699219 386.238281 433.835938 392.34375 433.824219 C 396.910156 433.695313 401.40625 434.957031 405.242188 437.433594 L 416.230469 437.433594 C 417.195313 437.390625 418.15625 437.441406 419.105469 437.585938 C 419.324219 437.695313 419.519531 437.863281 419.660156 438.070313 C 419.925781 438.640625 420.042969 439.265625 420.003906 439.894531 C 420.054688 440.59375 419.957031 441.304688 419.710938 441.96875 C 419.574219 442.1875 419.355469 442.347656 419.105469 442.410156 C 418.148438 442.574219 417.183594 442.628906 416.21875 442.574219 L 409.410156 442.574219 C 411.566406 445.320313 412.632813 448.835938 412.632813 453.101563 C 412.660156 457.875 410.621094 462.425781 407.042969 465.585938 C 403.292969 469.046875 398.335938 470.828125 392.101563 470.828125 C 389.414063 470.824219 386.738281 470.410156 384.171875 469.597656 C 382.921875 470.671875 381.859375 471.941406 381.015625 473.359375 C 380.511719 474.195313 380.207031 475.140625 380.128906 476.113281 C 380.160156 476.863281 380.503906 477.566406 381.085938 478.046875 C 381.691406 478.636719 382.933594 479.085938 384.757813 479.328125 C 387.402344 479.625 390.058594 479.78125 392.71875 479.792969 C 400.519531 480.039063 405.59375 480.332031 407.878906 480.726563 C 411.058594 481.058594 414.039063 482.433594 416.355469 484.636719 C 418.429688 486.683594 419.574219 489.496094 419.511719 492.410156 C 419.511719 496.640625 417.488281 500.648438 413.472656 504.390625 C 407.59375 509.882813 399.890625 512.628906 390.371094 512.628906 C 383.066406 512.628906 376.882813 511.019531 371.847656 507.71875 C 368.996094 505.816406 367.597656 503.867188 367.597656 501.800781 C 367.609375 500.863281 367.8125 499.941406 368.191406 499.082031 C 369.273438 497.007813 370.585938 495.058594 372.097656 493.269531 C 372.351563 492.910156 374.269531 490.875 377.789063 487.144531 C 376.257813 486.277344 374.859375 485.191406 373.640625 483.917969 C 372.847656 483.046875 372.410156 481.917969 372.410156 480.742188 C 372.507813 479.066406 373.058594 477.453125 373.996094 476.0625 C 375.078125 474.25 377.550781 471.695313 381.410156 468.460938 Z M 380.9375 487.609375 C 379.398438 489.234375 378.082031 491.042969 377 493 C 376.1875 494.363281 375.730469 495.910156 375.683594 497.496094 C 375.683594 499.359375 376.761719 500.925781 378.957031 502.28125 C 382.761719 504.601563 388.25 505.808594 395.441406 505.808594 C 402.265625 505.808594 407.273438 504.601563 410.542969 502.207031 C 413.808594 499.808594 415.40625 497.285156 415.40625 494.574219 C 415.453125 492.699219 414.269531 491.015625 412.496094 490.410156 C 410.511719 489.570313 406.605469 489.085938 400.726563 488.964844 C 392.132813 488.726563 385.515625 488.222656 380.9375 487.609375 Z M 391.351563 436.683594 C 388.613281 436.679688 386.019531 437.933594 384.320313 440.085938 C 382.441406 442.335938 381.503906 445.652344 381.503906 450.269531 C 381.503906 456.226563 382.785156 460.851563 385.351563 464.140625 C 387.097656 466.527344 389.886719 467.921875 392.84375 467.882813 C 395.574219 467.941406 398.179688 466.746094 399.914063 464.632813 C 401.765625 462.484375 402.683594 459.128906 402.683594 454.554688 C 402.683594 448.5625 401.402344 443.851563 398.796875 440.46875 C 397.078125 438.078125 394.296875 436.667969 391.351563 436.679688 Z M 391.351563 436.683594 "/>
        </g>
        <g clip-path="url(#clip4)" clip-rule="nonzero">
            <path style=" stroke:none;fill-rule:nonzero;fill:rgb(28.999329%,31.799316%,34.498596%);fill-opacity:1;"
                  d="M 421.636719 435.324219 L 446.085938 435.324219 L 446.085938 437.414063 L 444.902344 437.414063 C 443.527344 437.328125 442.15625 437.714844 441.035156 438.519531 C 440.226563 439.207031 439.757813 440.210938 439.773438 441.273438 C 439.773438 442.773438 440.378906 444.828125 441.652344 447.441406 L 454.390625 473.867188 L 466.058594 444.988281 C 466.691406 443.507813 467.023438 441.917969 467.035156 440.304688 C 467.058594 439.777344 466.914063 439.25 466.632813 438.808594 C 466.265625 438.339844 465.765625 437.996094 465.199219 437.816406 C 464.097656 437.492188 462.941406 437.351563 461.792969 437.414063 L 461.792969 435.324219 L 478.699219 435.324219 L 478.699219 437.414063 C 477.554688 437.484375 476.441406 437.796875 475.429688 438.328125 C 474.4375 439.007813 473.585938 439.863281 472.917969 440.855469 C 472.152344 442.265625 471.5 443.726563 470.964844 445.238281 L 449.78125 497.316406 C 447.710938 502.390625 445.011719 506.1875 441.664063 508.78125 C 438.316406 511.371094 435.097656 512.628906 432 512.628906 C 429.964844 512.726563 427.972656 512.035156 426.433594 510.699219 C 425.078125 509.617188 424.277344 507.988281 424.261719 506.257813 C 424.203125 504.820313 424.777344 503.429688 425.835938 502.453125 C 427.035156 501.414063 428.59375 500.890625 430.175781 501 C 431.960938 501.113281 433.710938 501.527344 435.355469 502.21875 C 436.285156 502.597656 437.253906 502.886719 438.242188 503.074219 C 439.390625 503.074219 440.613281 502.453125 441.988281 501.285156 C 443.355469 500.117188 444.695313 497.847656 446.0625 494.5 L 449.761719 485.402344 L 430.949219 446.105469 C 430.15625 444.578125 429.246094 443.105469 428.21875 441.710938 C 427.550781 440.71875 426.765625 439.808594 425.878906 439 C 424.558594 438.253906 423.128906 437.714844 421.640625 437.414063 Z M 421.636719 435.324219 "/>
        </g>
        <path style=" stroke:none;fill-rule:nonzero;fill:rgb(28.999329%,31.799316%,34.498596%);fill-opacity:1;"
              d="M 478.597656 431.859375 L 478.597656 421.367188 L 483.1875 421.367188 C 483.914063 421.335938 484.636719 421.457031 485.320313 421.707031 C 485.792969 421.886719 486.199219 422.21875 486.460938 422.65625 C 486.742188 423.128906 486.894531 423.679688 486.894531 424.234375 C 486.917969 424.933594 486.644531 425.613281 486.144531 426.101563 C 485.558594 426.6875 484.777344 427.042969 483.945313 427.101563 C 484.246094 427.230469 484.519531 427.402344 484.769531 427.613281 C 485.214844 428.019531 485.601563 428.488281 485.917969 428.992188 L 487.738281 431.859375 L 486.023438 431.859375 L 484.652344 429.6875 C 484.246094 429.09375 483.902344 428.582031 483.65625 428.257813 C 483.453125 427.980469 483.21875 427.730469 482.957031 427.507813 C 482.765625 427.394531 482.550781 427.3125 482.332031 427.261719 C 482.089844 427.214844 481.839844 427.1875 481.589844 427.199219 L 480.015625 427.199219 L 480.015625 431.859375 Z M 479.976563 426.039063 L 482.921875 426.039063 C 483.433594 426.082031 483.945313 426.007813 484.417969 425.820313 C 484.738281 425.714844 485.007813 425.488281 485.167969 425.191406 C 485.363281 424.910156 485.457031 424.570313 485.449219 424.234375 C 485.46875 423.773438 485.269531 423.328125 484.914063 423.035156 C 484.433594 422.679688 483.839844 422.511719 483.246094 422.5625 L 479.941406 422.5625 Z M 479.976563 426.039063 "/>
        <g clip-path="url(#clip5)" clip-rule="nonzero">
            <path style=" stroke:none;fill-rule:nonzero;fill:rgb(28.599548%,31.399536%,34.098816%);fill-opacity:1;"
                  d="M 490.625 426.257813 L 490.480469 427.882813 L 489.980469 429.375 L 488.316406 431.863281 L 485.824219 433.574219 L 484.28125 434.074219 L 482.707031 434.21875 L 481.082031 434.074219 L 479.585938 433.574219 L 477.046875 431.863281 L 475.386719 429.375 L 474.886719 427.882813 L 474.738281 426.257813 L 474.886719 424.632813 L 475.386719 423.140625 L 477.046875 420.652344 L 479.585938 418.941406 L 481.082031 418.441406 L 482.714844 418.296875 L 484.28125 418.492188 L 485.820313 418.941406 L 488.316406 420.652344 L 489.980469 423.140625 L 490.480469 424.683594 Z M 489.734375 424.796875 L 489.75 424.871094 L 489.28125 423.421875 L 489.324219 423.515625 L 487.730469 421.125 L 487.832031 421.230469 L 485.445313 419.589844 L 485.550781 419.640625 L 484.101563 419.222656 L 484.15625 419.234375 L 482.65625 419.046875 L 482.738281 419.046875 L 481.191406 419.183594 L 481.277344 419.171875 L 479.871094 419.640625 L 479.964844 419.589844 L 477.527344 421.230469 L 477.628906 421.125 L 476.035156 423.515625 L 476.078125 423.429688 L 475.609375 424.835938 L 475.628906 424.746094 L 475.488281 426.289063 L 475.488281 426.226563 L 475.628906 427.769531 L 475.609375 427.6875 L 476.078125 429.09375 L 476.035156 429 L 477.628906 431.390625 L 477.527344 431.285156 L 479.964844 432.925781 L 479.871094 432.882813 L 481.277344 433.351563 L 481.191406 433.332031 L 482.738281 433.46875 L 482.671875 433.46875 L 484.167969 433.332031 L 484.089844 433.34375 L 485.542969 432.875 L 485.445313 432.925781 L 487.832031 431.289063 L 487.730469 431.390625 L 489.324219 429 L 489.28125 429.09375 L 489.75 427.6875 L 489.734375 427.769531 L 489.875 426.226563 L 489.875 426.296875 Z M 489.734375 424.796875 "/>
        </g>
        <path style=" stroke:none;fill-rule:evenodd;fill:rgb(28.999329%,31.799316%,34.498596%);fill-opacity:1;"
              d="M 119.015625 90.179688 C 119.015625 59.925781 143.550781 35.390625 173.804688 35.390625 L 392.957031 35.390625 C 423.210938 35.390625 447.746094 59.925781 447.746094 90.179688 L 447.746094 309.335938 C 447.746094 339.589844 423.210938 364.121094 392.957031 364.121094 L 173.804688 364.121094 C 143.550781 364.121094 119.015625 339.589844 119.015625 309.335938 Z M 119.015625 90.179688 "/>
        <path style=" stroke:none;fill-rule:nonzero;fill:rgb(100%,100%,100%);fill-opacity:1;"
              d="M 318.652344 161.6875 C 317.933594 152.289063 313.824219 144.839844 306.304688 139.332031 C 298.785156 133.820313 289 131.070313 276.921875 131.070313 C 266.453125 131.070313 258.265625 133.382813 252.355469 137.992188 C 246.457031 142.601563 243.5 149.019531 243.5 157.257813 C 243.5 163.164063 246.585938 167.722656 252.765625 170.953125 C 258.855469 174.171875 271.78125 177.980469 291.566406 182.363281 C 320.292969 188.808594 339.5 196.238281 349.15625 204.65625 C 358.84375 212.976563 363.683594 226.363281 363.683594 244.796875 C 363.683594 263.324219 356.382813 278.03125 341.796875 288.910156 C 327.210938 299.785156 307.484375 305.214844 282.601563 305.214844 C 257.636719 305.214844 238.121094 299.445313 224.074219 287.898438 C 210.027344 276.351563 202.507813 259.925781 201.515625 238.621094 L 241.269531 238.621094 C 241.707031 249.097656 245.519531 257.15625 252.675781 262.792969 C 259.835938 268.433594 269.8125 271.253906 282.609375 271.253906 C 295.757813 271.253906 306.023438 269.121094 313.414063 264.875 C 320.792969 260.625 324.480469 254.734375 324.480469 247.21875 C 324.480469 239.789063 321.820313 234.332031 316.503906 230.832031 C 311.3125 227.34375 300.214844 223.722656 283.21875 219.964844 C 251.917969 212.976563 230.980469 205.417969 220.421875 197.269531 C 209.945313 189.210938 204.707031 176.632813 204.707031 159.535156 C 204.707031 140.378906 211.644531 125.183594 225.511719 113.957031 C 239.378906 102.71875 258.125 97.097656 281.75 97.097656 C 303.855469 97.097656 321.84375 102.917969 335.707031 114.554688 C 349.574219 126.191406 357.273438 141.898438 358.792969 161.6875 Z M 318.652344 161.6875 "/>
    </g>
</svg>
