<?xml version="1.0" encoding="UTF-8"?>
<svg xmlns="http://www.w3.org/2000/svg" xmlns:xlink="http://www.w3.org/1999/xlink" width="566.88pt" height="566.88pt" viewBox="0 0 566.88 566.88" version="1.2">
<defs>
<clipPath id="clip1">
  <path d="M 104 0 L 566.761719 0 L 566.761719 463 L 104 463 Z M 104 0 "/>
</clipPath>
<clipPath id="clip2">
  <path d="M 138 0 L 566.761719 0 L 566.761719 496 L 138 496 Z M 138 0 "/>
</clipPath>
<clipPath id="clip3">
  <path d="M 171 0 L 566.761719 0 L 566.761719 530 L 171 530 Z M 171 0 "/>
</clipPath>
<clipPath id="clip4">
  <path d="M 0 0 L 566.761719 0 L 566.761719 566.761719 L 0 566.761719 Z M 0 0 "/>
</clipPath>
</defs>
<g id="surface1">
<path style="fill-rule:evenodd;fill:rgb(51.799011%,64.299011%,87.5%);fill-opacity:1;stroke-width:15;stroke-linecap:butt;stroke-linejoin:miter;stroke:rgb(51.799011%,64.299011%,87.5%);stroke-opacity:1;stroke-miterlimit:10;" d="M 233.299376 316.498884 L 249.88101 333.021912 C 241.590193 341.879256 236.26094 353.678628 236.26094 366.661845 C 236.26094 379.641154 241.590193 391.440526 249.88101 400.301777 L 233.299376 416.820898 C 220.280995 403.841588 212.580147 386.130809 212.580147 366.661845 C 212.580147 347.188973 220.280995 329.478194 233.299376 316.498884 Z M 233.299376 316.498884 " transform="matrix(0.999788,0,0,-0.999788,-0.000000000000000389,566.760025)"/>
<path style="fill-rule:evenodd;fill:rgb(51.799011%,64.299011%,87.5%);fill-opacity:1;stroke-width:15;stroke-linecap:butt;stroke-linejoin:miter;stroke:rgb(51.799011%,64.299011%,87.5%);stroke-opacity:1;stroke-miterlimit:10;" d="M 200.19862 283.398129 L 216.709927 299.928971 C 199.608651 317.061503 189.000938 340.679783 189.000938 366.669659 C 189.000938 392.65172 199.608651 416.281721 216.709927 433.398625 L 200.19862 449.941189 C 178.389317 428.678876 165.421729 399.149189 165.421729 366.669659 C 165.421729 334.190128 178.389317 304.660441 200.19862 283.398129 Z M 200.19862 283.398129 " transform="matrix(0.999788,0,0,-0.999788,-0.000000000000000389,566.760025)"/>
<path style="fill-rule:evenodd;fill:rgb(51.799011%,64.299011%,87.5%);fill-opacity:1;stroke-width:15;stroke-linecap:butt;stroke-linejoin:miter;stroke:rgb(51.799011%,64.299011%,87.5%);stroke-opacity:1;stroke-miterlimit:10;" d="M 183.058274 266.249968 C 157.681809 291.638154 141.74875 327.071434 141.74875 366.630588 C 141.74875 406.189741 157.681809 441.029146 183.058274 467.011207 L 166.531338 483.538143 C 136.439032 453.430208 118.138284 412.089428 118.138284 366.630588 C 118.138284 321.160027 136.439032 279.830968 166.531338 249.719126 Z M 183.058274 266.249968 " transform="matrix(0.999788,0,0,-0.999788,-0.000000000000000389,566.760025)"/>
<path style=" stroke:none;fill-rule:evenodd;fill:rgb(51.799011%,64.299011%,87.5%);fill-opacity:1;" d="M 333.609375 250.328125 C 346.625 237.351563 354.324219 219.644531 354.324219 200.175781 C 354.324219 180.710938 346.625 163.003906 333.609375 150.027344 L 317.03125 166.542969 C 325.320313 174.804688 330.648438 186.609375 330.648438 200.175781 C 330.648438 213.746094 325.320313 224.953125 317.03125 233.808594 Z M 333.609375 250.328125 "/>
<g clip-path="url(#clip1)" clip-rule="nonzero">
<path style="fill:none;stroke-width:15;stroke-linecap:butt;stroke-linejoin:miter;stroke:rgb(51.799011%,64.299011%,87.5%);stroke-opacity:1;stroke-miterlimit:10;" d="M 333.679995 316.498884 C 346.698375 329.478194 354.399224 347.188973 354.399224 366.661845 C 354.399224 386.130809 346.698375 403.841588 333.679995 416.820898 L 317.098361 400.301777 C 325.389178 392.038309 330.718431 380.231123 330.718431 366.661845 C 330.718431 353.088659 325.389178 341.879256 317.098361 333.021912 Z M 333.679995 316.498884 " transform="matrix(0.999788,0,0,-0.999788,-0.000000000000000389,566.760025)"/>
</g>
<path style=" stroke:none;fill-rule:evenodd;fill:rgb(51.799011%,64.299011%,87.5%);fill-opacity:1;" d="M 350.144531 266.894531 L 366.691406 283.421875 C 388.558594 262.164063 401.554688 232.640625 401.554688 200.167969 C 401.554688 167.695313 388.558594 138.171875 366.691406 116.914063 L 350.144531 133.453125 C 367.28125 150.566406 377.921875 174.191406 377.921875 200.167969 C 377.921875 226.152344 367.28125 249.765625 350.144531 266.894531 Z M 350.144531 266.894531 "/>
<g clip-path="url(#clip2)" clip-rule="nonzero">
<path style="fill:none;stroke-width:15;stroke-linecap:butt;stroke-linejoin:miter;stroke:rgb(51.799011%,64.299011%,87.5%);stroke-opacity:1;stroke-miterlimit:10;" d="M 350.218652 299.928971 L 366.769029 283.398129 C 388.640846 304.660441 401.639691 334.190128 401.639691 366.669659 C 401.639691 399.149189 388.640846 428.678876 366.769029 449.941189 L 350.218652 433.398625 C 367.358998 416.281721 378.001875 392.65172 378.001875 366.669659 C 378.001875 340.679783 367.358998 317.061503 350.218652 299.928971 Z M 350.218652 299.928971 " transform="matrix(0.999788,0,0,-0.999788,-0.000000000000000389,566.760025)"/>
</g>
<path style=" stroke:none;fill-rule:evenodd;fill:rgb(51.799011%,64.299011%,87.5%);fill-opacity:1;" d="M 383.859375 300.566406 L 400.386719 317.09375 C 430.46875 286.988281 448.765625 245.667969 448.765625 200.207031 C 448.765625 154.757813 430.46875 113.425781 400.386719 83.324219 L 383.859375 99.847656 C 409.234375 125.234375 425.160156 160.65625 425.160156 200.207031 C 425.160156 239.757813 409.234375 274.59375 383.859375 300.566406 Z M 383.859375 300.566406 "/>
<g clip-path="url(#clip3)" clip-rule="nonzero">
<path style="fill:none;stroke-width:15;stroke-linecap:butt;stroke-linejoin:miter;stroke:rgb(51.799011%,64.299011%,87.5%);stroke-opacity:1;stroke-miterlimit:10;" d="M 383.940632 266.249968 L 400.471475 249.719126 C 430.559874 279.830968 448.860622 321.160027 448.860622 366.630588 C 448.860622 412.089428 430.559874 453.430208 400.471475 483.538143 L 383.940632 467.011207 C 409.321004 441.619115 425.250156 406.189741 425.250156 366.630588 C 425.250156 327.071434 409.321004 292.228123 383.940632 266.249968 Z M 383.940632 266.249968 " transform="matrix(0.999788,0,0,-0.999788,-0.000000000000000389,566.760025)"/>
</g>
<g clip-path="url(#clip4)" clip-rule="nonzero">
<path style="fill:none;stroke-width:15;stroke-linecap:butt;stroke-linejoin:miter;stroke:rgb(51.799011%,64.299011%,87.5%);stroke-opacity:1;stroke-miterlimit:10;" d="M 437.018272 130.459511 C 430.528617 130.459511 425.211086 135.78095 425.211086 142.270604 C 425.211086 148.768073 430.528617 154.081698 437.018272 154.081698 C 443.519648 154.081698 448.829365 148.768073 448.829365 142.270604 C 448.829365 135.78095 443.519648 130.459511 437.018272 130.459511 Z M 377.978433 130.459511 C 371.480964 130.459511 366.171247 135.78095 366.171247 142.270604 C 366.171247 148.768073 371.480964 154.081698 377.978433 154.081698 C 384.468088 154.081698 389.781712 148.768073 389.781712 142.270604 C 389.781712 135.78095 384.468088 130.459511 377.978433 130.459511 Z M 318.93078 130.459511 C 312.429404 130.459511 307.119686 135.78095 307.119686 142.270604 C 307.119686 148.768073 312.429404 154.081698 318.93078 154.081698 C 325.420435 154.081698 330.741873 148.768073 330.741873 142.270604 C 330.741873 135.78095 325.420435 130.459511 318.93078 130.459511 Z M 259.87922 130.459511 C 253.389565 130.459511 248.068126 135.78095 248.068126 142.270604 C 248.068126 148.768073 253.389565 154.081698 259.87922 154.081698 C 266.380596 154.081698 271.690313 148.768073 271.690313 142.270604 C 271.690313 135.78095 266.380596 130.459511 259.87922 130.459511 Z M 141.791728 118.648417 C 128.800697 118.648417 118.169541 129.279574 118.169541 142.270604 C 118.169541 155.269449 128.800697 165.900605 141.791728 165.900605 C 154.778851 165.900605 165.410007 155.269449 165.410007 142.270604 C 165.410007 129.279574 154.778851 118.648417 141.791728 118.648417 Z M 460.640459 201.329979 L 295.308593 201.329979 L 295.308593 346.599005 C 302.399937 350.728785 307.119686 358.410098 307.119686 366.68138 C 307.119686 379.668504 296.48853 390.29966 283.501407 390.29966 C 270.510376 390.29966 259.87922 379.668504 259.87922 366.68138 C 259.87922 357.82013 264.598969 350.138816 271.690313 346.599005 L 271.690313 201.329979 L 106.358447 201.329979 C 93.367417 201.329979 82.740167 190.698822 82.740167 177.711699 L 82.740167 106.841231 C 82.740167 93.8502 93.367417 83.219044 106.358447 83.219044 L 460.640459 83.219044 C 473.631489 83.219044 484.258739 93.8502 484.258739 106.841231 L 484.258739 177.711699 C 484.258739 190.698822 473.631489 201.329979 460.640459 201.329979 Z M 460.640459 201.329979 " transform="matrix(0.999788,0,0,-0.999788,-0.000000000000000389,566.760025)"/>
</g>
</g>
</svg>
