<svg width="341.33" height="341.33" version="1.1" viewBox="0 0 341.33 341.33" xmlns="http://www.w3.org/2000/svg">
 <circle cx="170.66" cy="170.66" r="150" fill="#fff" stroke-width="1.5018"/>
 <g transform="matrix(.99415 0 0 .99414 -22.251 -3.9516)">
  <path d="m181.66 336.19c-58.3-5.3046-107.86-39.592-132.81-91.88-25.708-53.883-19.581-117.72 15.881-165.47 9.247-12.451 26.44-29.153 38.387-37.294 12.836-8.7463 35.193-18.994 50.542-23.166 12.497-3.3975 15.613-3.6815 40.385-3.6815 24.772 0 27.888 0.28407 40.385 3.6815 15.35 4.1731 37.706 14.421 50.542 23.166 19.864 13.535 40.577 37.017 51.879 58.813 45.091 86.964 2.7302 194.43-89.429 226.87-19.424 6.8375-47.317 10.637-65.766 8.958zm55.591-93.373c2.8628-4.5232 27.005-121.62 27.005-130.98 0-4.191-0.20983-4.3626-4.4739-3.6618-10.8 1.7754-144.02 54.06-153.84 60.375-4.5009 2.8964 0.91163 6.243 21.575 13.34l20.666 7.0982 32.91-21.309c48.967-31.706 57.001-36.285 57.001-32.49 0 0.62876-15.486 15.269-34.414 32.533-18.928 17.264-34.414 31.879-34.414 32.477 0 0.59858 4.6403 4.4502 10.312 8.5594 5.6714 4.1093 19.145 14.136 29.941 22.282 11.002 8.3016 20.976 14.827 22.695 14.848 1.708 0.0209 3.9367-1.339 5.0326-3.0705z" fill="#cfeefb" stroke-width="1.3789"/>
  <path d="m169.95 324.7c-59.736-9.1388-109.52-53.814-125-112.18-4.4587-16.805-5.6448-44.926-2.6151-62 11.265-63.489 62.505-113.76 126.57-124.18 12.846-2.0894 37.675-2.1002 50.291-0.02166 64.228 10.582 115.31 60.707 126.58 124.2 3.0165 17 1.8422 45.201-2.5752 61.845-20.196 76.095-94.639 124.36-173.25 112.33zm65.034-83.471c2.3706-1.8941 4.2535-8.8356 11.236-41.424 11.729-54.742 17.249-84.197 16.255-86.744-0.46745-1.1969-2.0312-2.1763-3.475-2.1763-5.4335 0-110.21 39.799-143.35 54.451-14.223 6.2882-12.186 8.9813 12.903 17.06 9.4612 3.0466 18.175 6.3688 19.362 7.3826 1.1875 1.0139 3.1843 5.4722 4.4372 9.907 5.0585 17.907 10.225 32.355 11.19 31.293 0.56204-0.61924 1.6636-7.1819 2.4478-14.584 0.78425-7.4018 1.761-13.787 2.1705-14.189 0.40951-0.40238 4.3613 2.028 8.7818 5.4008 4.4204 3.3729 9.6331 6.8256 11.584 7.6728 1.9506 0.84721 11.765 7.5445 21.811 14.883 10.046 7.3384 19.061 13.342 20.034 13.342 0.97276 0 3.0501-1.0239 4.6164-2.2754z" fill="#b0e4fa" stroke-width="1.3117"/>
  <path d="m158.25 343.5c-33.077-6.9423-60.578-22.084-86.151-47.433-20.985-20.802-36.545-47.784-44.114-76.498-5.1602-19.574-6.5322-54.685-2.8941-74.061 6.7451-35.924 21.418-63.815 47.382-90.065 33.114-33.48 74.567-50.802 121.57-50.802s88.457 17.322 121.57 50.802c25.964 26.25 40.637 54.141 47.382 90.065 3.6381 19.376 2.2661 54.487-2.8941 74.061-7.9386 30.113-23.563 56.476-46.776 78.929-25.244 24.417-51.46 38.373-84.86 45.178-19.745 4.0232-50.576 3.9456-70.217-0.17683zm83.407-91.295c1.7416-1.6222 3.5421-4.1536 4.0014-5.6253 1.3745-4.4057 19.763-92.305 24.838-118.73 4.4563-23.203 4.5749-24.707 2.159-27.376-1.4061-1.5534-3.5192-2.8243-4.6961-2.8243-5.709 0-132.42 49.396-163.29 63.658-9.3585 4.3231-11.151 5.7326-11.151 8.7666 0 5.4133 3.3761 7.3629 25.148 14.523 10.944 3.5985 20.566 7.3481 21.382 8.3324 0.81637 0.98429 4.2258 11.17 7.5748 22.634 6.5844 22.54 9.9556 29.845 13.773 29.845 1.3441 0 7.9096-4.9583 14.59-11.018 7.5693-6.8666 12.976-10.7 14.349-10.174 1.2115 0.46481 10.138 6.8238 19.835 14.131 24.926 18.782 25.793 19.164 31.486 13.863z" fill="#3bc0fd" stroke-width="1.5002"/>
 </g>
</svg>
