<svg width="341.33" height="341.33" version="1.1" viewBox="0 0 341.33 341.33" xmlns="http://www.w3.org/2000/svg">
 <circle cx="171" cy="171" r="171" fill="#fff" stroke-width="1.712"/>
 <g transform="matrix(.99708 0 0 .99707 -57.986 -4.6328)">
  <path d="m215.99 346.23c-61.944-5.6361-114.6-42.066-141.11-97.623-27.315-57.251-20.805-125.08 16.873-175.81 9.8249-13.229 28.092-30.975 40.786-39.625 13.638-9.2929 37.392-20.181 53.701-24.614 13.278-3.6098 16.589-3.9116 42.909-3.9116s29.631 0.30182 42.909 3.9116c16.309 4.4339 40.063 15.322 53.701 24.614 21.105 14.381 43.113 39.331 55.121 62.489 47.909 92.399 2.9008 206.58-95.018 241.05-20.638 7.2648-50.274 11.302-69.876 9.5179zm59.065-99.209c3.0417-4.8059 28.693-129.22 28.693-139.17 0-4.4529-0.22295-4.6353-4.7535-3.8906-11.475 1.8864-153.02 57.439-163.45 64.148-4.7822 3.0774 0.96861 6.6332 22.923 14.174l21.958 7.5418 34.967-22.641c52.027-33.688 60.563-38.553 60.563-34.521 0 0.66805-16.454 16.223-36.565 34.566s-36.565 33.871-36.565 34.507 4.9303 4.7284 10.956 9.0944c6.0259 4.3661 20.341 15.02 31.812 23.675 11.69 8.8204 22.287 15.754 24.113 15.776 1.8147 0.0222 4.1827-1.4227 5.3471-3.2624z" fill="#cfeefb" stroke-width="1.4651"/>
  <path d="m201.87 343.58c-66.395-10.327-121.73-60.811-138.94-126.77-4.9558-18.99-6.2741-50.767-2.9066-70.061 12.521-71.743 69.473-128.55 140.68-140.32 14.278-2.3611 41.875-2.3732 55.897-0.02447 71.388 11.958 128.17 68.6 140.69 140.35 3.3528 19.21 2.0476 51.078-2.8623 69.886-22.447 85.989-105.19 140.53-192.56 126.94zm72.284-94.324c2.6349-2.1403 4.7277-9.9844 12.489-46.81 13.037-61.859 19.172-95.144 18.067-98.022-0.51957-1.3525-2.2577-2.4592-3.8624-2.4592-6.0392 0-122.5 44.973-159.33 61.53-15.809 7.1058-13.545 10.149 14.341 19.278 10.516 3.4427 20.201 7.1968 21.521 8.3424 1.3199 1.1457 3.5393 6.1836 4.9319 11.195 5.6224 20.235 11.365 36.562 12.437 35.362 0.6247-0.69975 1.849-8.1156 2.7207-16.48 0.87168-8.3641 1.9573-15.579 2.4125-16.034 0.45516-0.45468 4.8475 2.2917 9.7608 6.103 4.9132 3.8114 10.707 7.713 12.875 8.6704 2.168 0.95736 13.077 8.5254 24.243 16.818 11.166 8.2925 21.186 15.077 22.267 15.077 1.0812 0 3.3901-1.157 5.131-2.5712z" fill="#b0e4fa" stroke-width="1.47"/>
  <path d="m192.97 342.52c-32.981-6.922-60.402-22.019-85.9-47.294-20.924-20.741-36.439-47.644-43.986-76.274-5.1452-19.517-6.5132-54.525-2.8857-73.844 6.7255-35.819 21.356-63.628 47.244-89.801 33.018-33.382 74.35-50.653 121.22-50.653s88.199 17.271 121.22 50.653c25.888 26.173 40.519 53.982 47.244 89.801 3.6275 19.319 2.2595 54.327-2.8857 73.844-7.9155 30.025-23.494 56.311-46.64 78.698-25.17 24.345-51.31 38.261-84.613 45.046-19.688 4.0114-50.429 3.934-70.013-0.17631zm83.164-91.027c1.7365-1.6174 3.5318-4.1414 3.9897-5.6088 1.3705-4.3928 19.705-92.035 24.766-118.38 4.4433-23.135 4.5616-24.635 2.1527-27.296-1.402-1.5488-3.509-2.816-4.6824-2.816-5.6924 0-132.03 49.251-162.81 63.471-9.3313 4.3104-11.119 5.7158-11.119 8.7409 0 5.3974 3.3663 7.3413 25.075 14.48 10.912 3.588 20.506 7.3266 21.32 8.308s4.2135 11.137 7.5528 22.568c6.5652 22.474 9.9266 29.758 13.733 29.758 1.3402 0 7.8866-4.9438 14.548-10.986 7.5473-6.8465 12.938-10.669 14.307-10.144 1.208 0.46345 10.108 6.8038 19.777 14.09 24.853 18.727 25.718 19.108 31.394 13.822z" fill="#3bc0fd" stroke-width="1.4958"/>
 </g>
</svg>
